Land_normalized_Motion_pl12
version=1
nRows=8
nColumns=43
inDegrees=yes
endheader
time		pelvis_tilt		pelvis_list		pelvis_rotation		pelvis_tx		pelvis_ty		pelvis_tz		hip_flexion_r		hip_adduction_r		hip_rotation_r		knee_angle_r		ankle_angle_r		subtalar_angle_r		mtp_angle_r		hip_flexion_l		hip_adduction_l		hip_rotation_l		knee_angle_l		ankle_angle_l		subtalar_angle_l		mtp_angle_l		lumbar_extension		lumbar_bending		lumbar_rotation		neck_flexion		neck_lateral_bending		neck_rotation		arm_flex_r		arm_add_r		arm_rot_r		elbow_flex_r		pro_sup_r		wrist_flex_r		wrist_dev_r		hand_finger_flex_r		arm_flex_l		arm_add_l		arm_rot_l		elbow_flex_l		pro_sup_l		wrist_flex_l		wrist_dev_l		hand_finger_flex_l		
0.995000		-0.209602		2.512457		86.704671		0.006133		1.046385		0.647302		29.751824		-3.124559		-8.194885		-29.939130		-26.375649		5.018389		18.333925		26.929011		-8.027223		-13.856415		-28.780333		-24.424781		13.555050		25.184450		-29.243733		-0.227138		-1.424446		-36.014035		-4.996773		6.063227		-76.081015		-17.527971		-37.866726		63.260289		112.536772		0.516714		-1.766492		2.873189		-81.352448		-12.812376		-31.726388		74.056265		102.544234		-4.066245		-12.199633		17.333738		
0.998232		-0.194454		2.662587		86.689831		0.006218		1.032597		0.642130		30.165103		-3.121773		-7.910486		-31.291477		-26.614109		4.849957		18.361261		27.345048		-8.093771		-13.350691		-30.088211		-24.136121		13.643499		25.216530		-29.420466		-0.290843		-1.423298		-35.838614		-4.845312		6.228691		-75.710598		-17.209934		-37.900705		63.039684		112.398729		-0.169771		-1.545205		2.669103		-80.987031		-12.159975		-32.135888		73.627358		101.641143		-4.487758		-12.287897		17.226129		
1.001465		-0.158240		2.815944		86.695566		0.006232		1.018779		0.636885		30.590256		-3.108334		-7.677003		-32.649287		-27.005689		4.713626		18.350192		27.765995		-8.171602		-12.895049		-31.374157		-24.054065		13.755382		25.242427		-29.586039		-0.312028		-1.421168		-35.875689		-4.715468		6.418068		-75.332815		-17.021049		-37.748785		62.816534		112.238370		-0.789948		-1.312856		2.539341		-80.559457		-11.749088		-32.279510		73.124721		100.715146		-4.888407		-12.342760		17.184171		
1.004697		-0.139964		3.172864		86.624963		0.006106		1.005275		0.631822		30.778328		-3.084782		-7.298197		-33.854200		-27.488436		4.843666		18.367163		27.974744		-8.212769		-12.438361		-32.618880		-24.373173		13.824496		25.243711		-30.053598		-0.372881		-1.373255		-35.597739		-4.623621		6.383256		-74.689137		-16.588127		-38.138865		62.553578		112.092788		-1.240402		-1.164922		2.420008		-79.903259		-11.000988		-32.826788		72.740087		100.254498		-5.344480		-12.362960		17.084776		
1.007929		-0.098291		3.472398		86.574886		0.006304		0.991555		0.626834		31.090485		-2.996219		-6.913012		-35.135540		-27.846701		4.902294		18.552760		28.284977		-8.287033		-11.929688		-33.841674		-24.840453		13.822509		25.248188		-30.472983		-0.439194		-1.363297		-35.243749		-4.510220		6.453299		-73.971730		-16.259399		-38.310780		62.326249		111.990972		-1.759984		-0.995187		2.307101		-79.193152		-10.486142		-33.176196		72.222757		99.679465		-5.779826		-12.374233		17.058362		
1.011162		-0.118193		3.600484		86.579488		0.006152		0.977434		0.621884		31.642475		-3.010680		-6.587444		-36.510389		-27.983590		4.898994		20.939126		28.845390		-8.239748		-11.367783		-35.096466		-25.313004		13.547388		25.416417		-30.671432		-0.487690		-1.380958		-35.182157		-4.464501		6.427807		-73.309308		-16.059195		-38.224904		62.090620		111.628012		-2.609268		-0.840654		2.485476		-78.478408		-10.271136		-33.044917		71.706747		98.161641		-6.720819		-12.381546		17.585228		
1.014394		-0.073388		3.662207		86.557579		0.006187		0.963124		0.617416		32.262840		-2.831378		-5.976979		-37.934788		-27.071716		4.892265		24.039664		29.576072		-8.247480		-10.635857		-36.437025		-25.639773		13.217232		25.643670		-30.921988		-0.500795		-1.381480		-34.633880		-4.396331		6.477467		-72.411668		-15.785963		-38.272093		61.839503		111.229761		-3.637520		-0.692856		2.695072		-77.590581		-10.022432		-32.952521		71.125098		96.523816		-7.776655		-12.389502		18.257224		
1.017626		-0.169152		3.749823		86.543752		0.005926		0.948710		0.612697		32.907205		-2.865555		-5.342587		-39.708040		-24.587469		6.083060		27.035581		30.234916		-8.098576		-10.080751		-37.886839		-24.592733		13.215491		26.020669		-31.146463		-0.623085		-1.412476		-34.342325		-4.296975		6.547636		-71.498699		-15.546982		-38.385708		61.545268		111.372740		-4.242384		-0.827724		2.737153		-76.572436		-9.783538		-33.112817		70.523421		95.930688		-8.105233		-12.464536		18.804673		
